<?xml version="1.0" standalone="no"?>
<!DOCTYPE svg PUBLIC "-//W3C//DTD SVG 20010904//EN"
 "http://www.w3.org/TR/2001/REC-SVG-20010904/DTD/svg10.dtd">
<svg version="1.0" xmlns="http://www.w3.org/2000/svg"
 width="1713.000000pt" height="1575.000000pt" viewBox="0 0 1713.000000 1575.000000"
 preserveAspectRatio="xMidYMid meet">

<g transform="translate(0.000000,1575.000000) scale(0.100000,-0.100000)"
fill="#000000" stroke="none">
<path d="M2877 15583 c-27 -32 -134 -254 -195 -408 -51 -129 -76 -209 -152
-475 -18 -63 -24 -221 -11 -310 6 -41 16 -140 21 -220 18 -246 76 -642 100
-690 4 -8 25 -112 45 -230 20 -118 49 -262 65 -320 92 -353 135 -506 165 -592
47 -136 153 -483 170 -559 8 -35 28 -102 44 -149 17 -47 30 -99 30 -116 1 -17
10 -43 22 -58 32 -40 19 -60 -34 -52 -181 28 -638 43 -834 27 -284 -23 -536
-70 -769 -147 -163 -53 -409 -178 -534 -272 -194 -145 -370 -316 -370 -358 0
-36 201 -90 630 -168 377 -69 492 -80 810 -80 151 0 292 3 314 8 l39 7 -37
-49 c-20 -27 -36 -52 -36 -56 0 -3 -19 -36 -43 -73 -24 -38 -60 -102 -80 -143
-21 -41 -45 -87 -54 -101 -22 -34 -11 -59 25 -59 71 0 357 123 550 237 144 84
399 249 467 302 56 43 111 81 117 81 2 0 3 -107 3 -237 0 -221 2 -247 27 -363
15 -69 50 -196 78 -283 27 -87 50 -165 50 -174 0 -28 108 -251 171 -354 62
-101 250 -331 340 -414 99 -93 319 -256 384 -286 87 -39 233 -76 379 -95 67
-9 139 -21 161 -28 37 -10 40 -14 47 -56 3 -25 7 -190 7 -366 1 -288 -2 -354
-29 -625 -17 -167 -40 -419 -51 -559 -11 -140 -26 -316 -35 -390 -14 -130 -36
-353 -54 -550 -16 -176 -22 -512 -11 -580 6 -36 15 -135 21 -220 6 -85 16
-173 21 -195 6 -22 14 -62 19 -88 5 -27 13 -54 18 -60 5 -7 12 -30 15 -52 4
-22 25 -98 47 -170 155 -500 224 -827 311 -1470 7 -52 9 -180 5 -365 -7 -293
-22 -454 -71 -750 -13 -80 -29 -181 -35 -225 -25 -165 -119 -497 -151 -530 -5
-5 -9 -22 -9 -38 0 -16 -15 -64 -34 -106 -19 -42 -38 -89 -41 -106 -4 -16 -23
-68 -42 -114 -40 -94 -63 -172 -63 -213 0 -34 50 -92 101 -119 42 -21 108 -24
154 -6 50 20 167 92 215 134 25 21 66 49 91 62 41 21 51 23 103 14 35 -6 74
-7 97 -2 49 11 140 55 167 80 12 10 28 19 36 19 9 0 30 13 48 29 18 15 47 36
65 44 33 18 63 48 215 217 102 114 190 225 201 253 3 9 13 17 21 17 18 0 46
-38 46 -62 0 -10 6 -18 14 -18 7 0 44 -27 81 -60 37 -33 71 -60 75 -60 4 0 26
-23 50 -51 50 -59 48 -63 -45 -99 -159 -62 -204 -95 -295 -219 -43 -59 -66
-140 -55 -192 9 -40 58 -95 109 -122 41 -22 46 -22 631 -25 414 -2 615 1 675
9 112 16 136 14 260 -15 270 -64 790 -96 1001 -63 57 10 178 24 269 33 175 16
515 79 640 118 41 13 95 27 120 31 25 4 57 14 72 21 74 38 191 56 423 64 195
7 245 12 330 33 220 56 339 122 610 340 221 178 326 292 389 422 28 57 76 219
76 253 0 12 7 39 15 59 35 82 62 482 46 663 -11 125 -41 293 -54 306 -22 23 0
66 107 208 62 83 137 187 166 231 29 44 65 98 80 120 15 22 85 144 155 270 70
127 143 253 161 280 35 54 229 424 256 490 60 146 197 533 242 687 92 314 124
481 171 888 27 242 17 788 -20 995 -7 44 -17 121 -20 170 -3 50 -10 126 -16
170 -41 349 -50 482 -50 733 0 144 5 311 11 370 22 221 87 459 144 536 17 23
52 70 77 106 90 127 330 340 511 454 36 23 85 54 109 70 24 17 136 76 248 133
280 141 451 196 785 248 83 13 121 14 235 5 287 -23 436 -62 706 -185 88 -40
189 -83 224 -95 81 -27 190 -28 288 -1 78 20 119 48 196 130 l47 50 0 137 0
136 -34 47 c-69 92 -225 226 -341 293 -150 85 -333 143 -575 182 -205 33 -359
46 -565 46 -227 0 -395 -21 -574 -71 -79 -22 -183 -48 -230 -59 -117 -25 -276
-87 -401 -156 -51 -28 -123 -70 -173 -101 -29 -18 -77 -45 -107 -59 -30 -15
-68 -38 -83 -51 -16 -13 -33 -21 -38 -17 -15 9 -10 44 6 51 9 3 23 20 32 37
59 115 346 450 576 671 226 218 413 351 612 438 139 60 429 171 645 247 267
94 348 124 405 153 151 74 273 176 321 268 27 49 29 63 28 154 -1 164 -55 266
-167 316 -76 35 -201 32 -427 -10 -181 -33 -477 -123 -570 -173 -79 -42 -84
-45 -115 -56 -58 -20 -221 -90 -352 -151 -73 -33 -136 -61 -141 -61 -5 0 -16
-7 -23 -17 -8 -9 -34 -25 -59 -36 -60 -27 -211 -120 -282 -174 -32 -24 -77
-53 -100 -63 -24 -10 -61 -36 -83 -58 -23 -21 -88 -79 -146 -129 -111 -95
-258 -248 -312 -325 -18 -25 -70 -94 -117 -152 -128 -161 -173 -222 -195 -263
-10 -21 -65 -119 -121 -218 -116 -204 -248 -495 -283 -625 -6 -25 -27 -88 -46
-140 -50 -141 -144 -479 -170 -612 -13 -64 -28 -126 -34 -137 -6 -11 -11 -44
-11 -73 0 -29 -6 -87 -14 -128 -19 -100 -31 -679 -18 -815 17 -160 51 -433 67
-525 18 -104 66 -809 68 -1010 4 -276 -70 -949 -133 -1216 -50 -213 -219 -698
-295 -844 -12 -25 -39 -79 -59 -120 -76 -159 -141 -264 -235 -383 -126 -160
-227 -275 -263 -299 -76 -52 -75 -53 -317 190 -161 162 -230 224 -266 242 -28
13 -68 38 -90 55 -22 18 -110 76 -195 130 -85 54 -166 108 -180 121 -14 12
-41 29 -60 37 -313 134 -598 293 -600 334 0 7 -15 20 -32 29 -46 23 -188 124
-188 133 0 4 -17 17 -37 29 -21 11 -65 45 -97 74 -33 29 -85 71 -117 93 -98
68 -189 147 -400 344 -214 199 -484 476 -516 528 -10 16 -32 42 -50 57 -18 15
-63 64 -100 109 -37 45 -108 132 -159 192 -50 61 -110 139 -134 175 -24 36
-63 85 -86 110 -23 25 -58 74 -78 110 -66 118 -153 294 -180 365 -16 39 -56
126 -91 195 -34 69 -86 179 -114 245 -29 66 -57 129 -63 139 -20 37 -100 292
-128 411 -33 140 -47 255 -31 255 6 0 11 -5 11 -11 0 -26 248 -318 404 -477
231 -234 373 -352 566 -467 36 -21 83 -50 105 -65 62 -42 327 -172 456 -224
129 -51 185 -58 214 -26 17 19 17 25 1 142 -9 68 -16 144 -16 171 0 26 -4 55
-9 65 -5 9 -15 44 -21 77 -35 181 -228 762 -291 875 -10 19 -45 84 -76 143
-50 93 -141 237 -269 426 -32 47 -329 344 -373 374 -14 9 -23 18 -20 21 2 2
119 42 259 89 220 73 414 144 655 238 33 13 62 27 63 31 2 4 11 8 20 8 10 0
35 10 57 21 22 12 63 30 90 39 84 30 301 126 485 217 96 47 226 108 289 135
148 63 824 400 865 431 17 13 76 47 131 77 55 29 114 65 130 80 17 15 94 69
173 118 78 50 185 123 238 162 187 141 506 487 550 597 8 21 20 48 25 59 22
43 9 59 -50 62 -93 5 -242 -31 -466 -113 -111 -40 -339 -95 -397 -95 -44 0
-408 62 -524 90 -45 10 -200 37 -345 59 -145 23 -328 52 -406 66 -258 45 -637
87 -963 106 -102 6 -221 15 -265 20 -44 5 -402 12 -795 15 l-715 5 -68 26
c-37 14 -94 45 -125 69 -105 82 -396 271 -491 319 -49 25 -376 143 -446 161
-33 9 -131 29 -218 44 -206 37 -174 13 -420 322 -91 114 -542 627 -697 793
-458 489 -831 849 -1090 1054 -197 156 -228 184 -242 219 -5 15 -23 101 -39
192 -64 355 -121 564 -169 612 -32 32 -70 36 -93 11z"/>
</g>
</svg>
