<?xml version="1.0" standalone="no"?>
<!DOCTYPE svg PUBLIC "-//W3C//DTD SVG 20010904//EN"
 "http://www.w3.org/TR/2001/REC-SVG-20010904/DTD/svg10.dtd">
<svg version="1.0" xmlns="http://www.w3.org/2000/svg"
 width="377.000000pt" height="376.000000pt" viewBox="0 0 377.000000 376.000000"
 preserveAspectRatio="xMidYMid meet">

<g transform="translate(0.000000,376.000000) scale(0.100000,-0.100000)"
fill="#000000" stroke="none">
<path d="M1665 3748 c-724 -81 -1354 -592 -1579 -1278 -73 -223 -81 -284 -81
-590 0 -252 2 -284 23 -380 148 -661 601 -1175 1229 -1393 910 -317 1912 98
2328 965 484 1007 -21 2212 -1082 2581 -262 92 -566 126 -838 95z m520 -308
c201 -42 395 -125 570 -243 127 -86 323 -285 408 -412 143 -217 240 -475 264
-706 l6 -59 -436 0 -435 0 -7 41 c-4 23 -28 82 -53 133 -65 131 -171 235 -302
299 -209 102 -411 102 -620 0 -131 -64 -237 -168 -302 -299 -25 -51 -49 -110
-53 -133 l-7 -41 -440 0 -441 0 6 59 c24 231 121 489 264 706 85 127 281 326
408 412 208 140 439 229 685 263 107 15 371 4 485 -20z m-131 -1198 c124 -58
202 -161 228 -299 15 -80 1 -163 -42 -249 -37 -76 -101 -136 -188 -177 -61
-29 -76 -32 -162 -32 -86 0 -101 3 -162 32 -126 59 -204 161 -230 301 -29 158
56 333 201 410 78 42 122 52 213 48 61 -3 92 -11 142 -34z m-829 -543 c4 -23
28 -82 53 -133 65 -131 171 -235 302 -299 209 -102 411 -102 620 0 131 64 237
168 302 299 25 51 49 110 53 133 l7 41 435 0 436 0 -6 -59 c-24 -231 -121
-489 -264 -706 -85 -127 -281 -326 -408 -412 -176 -118 -367 -200 -575 -244
-152 -33 -438 -33 -590 0 -208 44 -399 126 -575 244 -127 86 -323 285 -408
412 -143 217 -240 475 -264 706 l-6 59 441 0 440 0 7 -41z"/>
<path d="M1807 2116 c-55 -21 -103 -61 -134 -114 -24 -40 -28 -58 -28 -123 0
-67 4 -81 30 -125 99 -159 326 -164 425 -8 101 160 -4 368 -192 380 -39 3 -77
-1 -101 -10z"/>
</g>
</svg>
